<svg width="476.513720703125px" height="129.22501220703123px" xmlns="http://www.w3.org/2000/svg" viewBox="11.743139648437506 10.387493896484386 476.513720703125 129.22501220703123" style="background: rgb(200, 14, 19);" preserveAspectRatio="xMidYMid"><defs><filter id="editing-hover" x="-100%" y="-100%" width="300%" height="300%"><feFlood flood-color="#052b4a" result="flood"></feFlood><feComposite operator="in" in2="SourceAlpha" in="flood" result="shadow"></feComposite><feOffset dx="-2.6" dy="-4" in="SourceGraphic" result="offset-1"></feOffset><feOffset dx="2.6" dy="4" in="shadow" result="offset-2"></feOffset><feMerge><feMergeNode in="offset-2"></feMergeNode><feMergeNode in="offset-1"></feMergeNode></feMerge></filter></defs><g filter="url(#editing-hover)"><g transform="translate(80.01280397176743, 102.64999961853027)"><path d="M13.95 7.30L13.95 7.30Q11.58 7.30 9.79 6.91L9.79 6.91L9.79 6.91Q8 6.53 6.69 5.06L6.69 5.06L6.69 5.06Q5.38 3.58 5.38 0.51L5.38 0.51L5.38 0.51Q5.38-3.78 7.97-11.01L7.97-11.01L7.97-11.01Q10.56-18.24 14.78-25.54L14.78-25.54L14.78-25.54Q11.58-25.34 9.73-24.58L9.73-24.58L9.73-24.58Q7.87-23.81 7.30-22.21L7.30-22.21L7.30-22.21Q7.55-22.21 7.84-21.57L7.84-21.57L7.84-21.57Q8.13-20.93 8.13-20.22L8.13-20.22L8.13-20.22Q8.13-19.07 7.10-18.40L7.10-18.40L7.10-18.40Q6.08-17.73 4.54-17.73L4.54-17.73L4.54-17.73Q2.75-17.73 1.66-18.69L1.66-18.69L1.66-18.69Q0.58-19.65 0.58-21.44L0.58-21.44L0.58-21.44Q0.58-23.62 2.27-25.41L2.27-25.41L2.27-25.41Q3.97-27.20 6.98-28.26L6.98-28.26L6.98-28.26Q9.98-29.31 13.63-29.31L13.63-29.31L13.63-29.31Q14.98-29.31 16.96-29.12L16.96-29.12L16.96-29.12Q22.21-37.44 28.06-42.72L28.06-42.72L28.06-42.72Q33.92-48 39.23-48L39.23-48L39.23-48Q42.30-48 44.29-47.10L44.29-47.10L34.24 0L25.02 0L29.95-23.23L29.95-23.23Q27.58-24.32 25.60-24.83L25.60-24.83L25.60-24.83Q23.62-25.34 21.38-25.54L21.38-25.54L21.38-25.54Q17.73-17.66 15.39-9.44L15.39-9.44L15.39-9.44Q13.06-1.22 13.06 3.71L13.06 3.71L13.06 3.71Q13.06 6.14 13.95 7.30L13.95 7.30ZM30.53-26.05L34.24-43.46L34.24-43.46Q31.49-41.98 28.51-37.98L28.51-37.98L28.51-37.98Q25.54-33.98 22.72-28.29L22.72-28.29L22.72-28.29Q27.33-27.39 30.53-26.05L30.53-26.05ZM50.05 0.38L50.05 0.38Q46.98 0.38 44.86-0.80L44.86-0.80L44.86-0.80Q42.75-1.98 41.73-3.87L41.73-3.87L41.73-3.87Q40.70-5.76 40.70-7.81L40.70-7.81L40.70-7.81Q40.70-9.92 41.70-11.49L41.70-11.49L41.70-11.49Q42.69-13.06 44.10-13.76L44.10-13.76L44.10-13.76Q46.59-18.24 48.45-22.82L48.45-22.82L48.45-22.82Q50.30-27.39 51.97-32.70L51.97-32.70L61.44-33.98L61.44-33.98Q61.76-25.79 62.53-16.26L62.53-16.26L62.53-16.26Q62.85-12.42 62.85-10.69L62.85-10.69L62.85-10.69Q62.85-9.22 62.59-8.26L62.59-8.26L62.59-8.26Q65.60-9.98 67.20-11.46L67.20-11.46L69.89-11.46L69.89-11.46Q65.79-6.72 60.10-3.46L60.10-3.46L60.10-3.46Q58.24-1.47 55.52-0.54L55.52-0.54L55.52-0.54Q52.80 0.38 50.05 0.38L50.05 0.38ZM48-4.67L48-4.67Q50.37-4.67 51.97-6.08L51.97-6.08L51.97-6.08Q53.57-7.49 53.57-10.62L53.57-10.62L53.57-10.62Q53.57-12.54 53.18-16L53.18-16L53.18-16Q52.54-23.30 52.35-25.79L52.35-25.79L52.35-25.79Q50.82-20.74 47.17-13.70L47.17-13.70L47.17-13.70Q48.64-12.93 48.64-11.46L48.64-11.46L48.64-11.46Q48.64-10.24 47.84-9.28L47.84-9.28L47.84-9.28Q47.04-8.32 45.82-8.32L45.82-8.32L45.82-8.32Q44.48-8.32 44.10-9.15L44.10-9.15L44.10-9.15Q44.10-6.85 45.02-5.76L45.02-5.76L45.02-5.76Q45.95-4.67 48-4.67L48-4.67ZM74.50 0.38L74.50 0.38Q71.42 0.38 69.31-0.80L69.31-0.80L69.31-0.80Q67.20-1.98 66.18-3.87L66.18-3.87L66.18-3.87Q65.15-5.76 65.15-7.81L65.15-7.81L65.15-7.81Q65.15-9.92 66.14-11.49L66.14-11.49L66.14-11.49Q67.14-13.06 68.54-13.76L68.54-13.76L68.54-13.76Q71.04-18.24 72.90-22.82L72.90-22.82L72.90-22.82Q74.75-27.39 76.42-32.70L76.42-32.70L85.89-33.98L85.89-33.98Q86.21-25.79 86.98-16.26L86.98-16.26L86.98-16.26Q87.30-12.42 87.30-10.69L87.30-10.69L87.30-10.69Q87.30-9.22 87.04-8.26L87.04-8.26L87.04-8.26Q90.05-9.98 91.65-11.46L91.65-11.46L94.34-11.46L94.34-11.46Q90.24-6.72 84.54-3.46L84.54-3.46L84.54-3.46Q82.69-1.47 79.97-0.54L79.97-0.54L79.97-0.54Q77.25 0.38 74.50 0.38L74.50 0.38ZM72.45-4.67L72.45-4.67Q74.82-4.67 76.42-6.08L76.42-6.08L76.42-6.08Q78.02-7.49 78.02-10.62L78.02-10.62L78.02-10.62Q78.02-12.54 77.63-16L77.63-16L77.63-16Q76.99-23.30 76.80-25.79L76.80-25.79L76.80-25.79Q75.26-20.74 71.62-13.70L71.62-13.70L71.62-13.70Q73.09-12.93 73.09-11.46L73.09-11.46L73.09-11.46Q73.09-10.24 72.29-9.28L72.29-9.28L72.29-9.28Q71.49-8.32 70.27-8.32L70.27-8.32L70.27-8.32Q68.93-8.32 68.54-9.15L68.54-9.15L68.54-9.15Q68.54-6.85 69.47-5.76L69.47-5.76L69.47-5.76Q70.40-4.67 72.45-4.67L72.45-4.67ZM100.80 0.38L100.80 0.38Q96.06 0.38 93.44-2.08L93.44-2.08L93.44-2.08Q90.82-4.54 90.82-9.79L90.82-9.79L90.82-9.79Q90.82-14.21 92.54-19.52L92.54-19.52L92.54-19.52Q94.27-24.83 98.18-28.70L98.18-28.70L98.18-28.70Q102.08-32.58 108.10-32.58L108.10-32.58L108.10-32.58Q115.14-32.58 115.14-26.43L115.14-26.43L115.14-26.43Q115.14-22.85 113.09-19.84L113.09-19.84L113.09-19.84Q111.04-16.83 107.65-15.01L107.65-15.01L107.65-15.01Q104.26-13.18 100.42-12.93L100.42-12.93L100.42-12.93Q100.29-11.01 100.29-10.37L100.29-10.37L100.29-10.37Q100.29-7.23 101.38-6.11L101.38-6.11L101.38-6.11Q102.46-4.99 104.90-4.99L104.90-4.99L104.90-4.99Q108.35-4.99 110.82-6.59L110.82-6.59L110.82-6.59Q113.28-8.19 116.22-11.46L116.22-11.46L118.40-11.46L118.40-11.46Q111.30 0.38 100.80 0.38L100.80 0.38ZM100.93-16L100.93-16Q103.30-16.13 105.44-17.66L105.44-17.66L105.44-17.66Q107.58-19.20 108.90-21.57L108.90-21.57L108.90-21.57Q110.21-23.94 110.21-26.56L110.21-26.56L110.21-26.56Q110.21-29.18 108.61-29.18L108.61-29.18L108.61-29.18Q106.30-29.18 104.10-25.15L104.10-25.15L104.10-25.15Q101.89-21.12 100.93-16L100.93-16ZM123.52 0.38L123.52 0.38Q120.45 0.38 118.34-0.80L118.34-0.80L118.34-0.80Q116.22-1.98 115.20-3.87L115.20-3.87L115.20-3.87Q114.18-5.76 114.18-7.81L114.18-7.81L114.18-7.81Q114.18-9.92 115.17-11.49L115.17-11.49L115.17-11.49Q116.16-13.06 117.57-13.76L117.57-13.76L117.57-13.76Q120.06-18.24 121.92-22.82L121.92-22.82L121.92-22.82Q123.78-27.39 125.44-32.70L125.44-32.70L134.91-33.98L134.91-33.98Q135.23-25.79 136-16.26L136-16.26L136-16.26Q136.32-12.42 136.32-10.69L136.32-10.69L136.32-10.69Q136.32-9.22 136.06-8.26L136.06-8.26L136.06-8.26Q139.07-9.98 140.67-11.46L140.67-11.46L143.36-11.46L143.36-11.46Q139.26-6.72 133.57-3.46L133.57-3.46L133.57-3.46Q131.71-1.47 128.99-0.54L128.99-0.54L128.99-0.54Q126.27 0.38 123.52 0.38L123.52 0.38ZM121.47-4.67L121.47-4.67Q123.84-4.67 125.44-6.08L125.44-6.08L125.44-6.08Q127.04-7.49 127.04-10.62L127.04-10.62L127.04-10.62Q127.04-12.54 126.66-16L126.66-16L126.66-16Q126.02-23.30 125.82-25.79L125.82-25.79L125.82-25.79Q124.29-20.74 120.64-13.70L120.64-13.70L120.64-13.70Q122.11-12.93 122.11-11.46L122.11-11.46L122.11-11.46Q122.11-10.24 121.31-9.28L121.31-9.28L121.31-9.28Q120.51-8.32 119.30-8.32L119.30-8.32L119.30-8.32Q117.95-8.32 117.57-9.15L117.57-9.15L117.57-9.15Q117.57-6.85 118.50-5.76L118.50-5.76L118.50-5.76Q119.42-4.67 121.47-4.67L121.47-4.67ZM147.97 0.38L147.97 0.38Q144.90 0.38 142.78-0.80L142.78-0.80L142.78-0.80Q140.67-1.98 139.65-3.87L139.65-3.87L139.65-3.87Q138.62-5.76 138.62-7.81L138.62-7.81L138.62-7.81Q138.62-9.92 139.62-11.49L139.62-11.49L139.62-11.49Q140.61-13.06 142.02-13.76L142.02-13.76L142.02-13.76Q144.51-18.24 146.37-22.82L146.37-22.82L146.37-22.82Q148.22-27.39 149.89-32.70L149.89-32.70L159.36-33.98L159.36-33.98Q159.68-25.79 160.45-16.26L160.45-16.26L160.45-16.26Q160.77-12.42 160.77-10.69L160.77-10.69L160.77-10.69Q160.77-9.22 160.51-8.26L160.51-8.26L160.51-8.26Q163.52-9.98 165.12-11.46L165.12-11.46L167.81-11.46L167.81-11.46Q163.71-6.72 158.02-3.46L158.02-3.46L158.02-3.46Q156.16-1.47 153.44-0.54L153.44-0.54L153.44-0.54Q150.72 0.38 147.97 0.38L147.97 0.38ZM145.92-4.67L145.92-4.67Q148.29-4.67 149.89-6.08L149.89-6.08L149.89-6.08Q151.49-7.49 151.49-10.62L151.49-10.62L151.49-10.62Q151.49-12.54 151.10-16L151.10-16L151.10-16Q150.46-23.30 150.27-25.79L150.27-25.79L150.27-25.79Q148.74-20.74 145.09-13.70L145.09-13.70L145.09-13.70Q146.56-12.93 146.56-11.46L146.56-11.46L146.56-11.46Q146.56-10.24 145.76-9.28L145.76-9.28L145.76-9.28Q144.96-8.32 143.74-8.32L143.74-8.32L143.74-8.32Q142.40-8.32 142.02-9.15L142.02-9.15L142.02-9.15Q142.02-6.85 142.94-5.76L142.94-5.76L142.94-5.76Q143.87-4.67 145.92-4.67L145.92-4.67ZM169.41 0L185.66-43.97L185.66-43.97Q180.80-42.37 178.14-38.69L178.14-38.69L178.14-38.69Q175.49-35.01 175.49-29.57L175.49-29.57L175.49-29.57Q175.49-27.14 175.94-26.24L175.94-26.24L175.94-26.24Q176.38-25.34 176.38-25.15L176.38-25.15L176.38-25.15Q169.54-25.15 169.54-30.98L169.54-30.98L169.54-30.98Q169.54-34.94 172.58-38.94L172.58-38.94L172.58-38.94Q175.62-42.94 180.38-45.47L180.38-45.47L180.38-45.47Q185.15-48 189.89-48L189.89-48L189.89-48Q192.26-48 194.75-47.10L194.75-47.10L193.28-13.38L207.36-47.10L216.58-47.10L209.86 0L200.64 0L204.74-28.74L192.70 0L183.94 0L185.22-28.86L174.53 0L169.41 0ZM224.64 0.38L224.64 0.38Q219.90 0.38 217.28-2.08L217.28-2.08L217.28-2.08Q214.66-4.54 214.66-9.79L214.66-9.79L214.66-9.79Q214.66-14.21 216.38-19.52L216.38-19.52L216.38-19.52Q218.11-24.83 222.02-28.70L222.02-28.70L222.02-28.70Q225.92-32.58 231.94-32.58L231.94-32.58L231.94-32.58Q238.98-32.58 238.98-26.43L238.98-26.43L238.98-26.43Q238.98-22.85 236.93-19.84L236.93-19.84L236.93-19.84Q234.88-16.83 231.49-15.01L231.49-15.01L231.49-15.01Q228.10-13.18 224.26-12.93L224.26-12.93L224.26-12.93Q224.13-11.01 224.13-10.37L224.13-10.37L224.13-10.37Q224.13-7.23 225.22-6.11L225.22-6.11L225.22-6.11Q226.30-4.99 228.74-4.99L228.74-4.99L228.74-4.99Q232.19-4.99 234.66-6.59L234.66-6.59L234.66-6.59Q237.12-8.19 240.06-11.46L240.06-11.46L242.24-11.46L242.24-11.46Q235.14 0.38 224.64 0.38L224.64 0.38ZM224.77-16L224.77-16Q227.14-16.13 229.28-17.66L229.28-17.66L229.28-17.66Q231.42-19.20 232.74-21.57L232.74-21.57L232.74-21.57Q234.05-23.94 234.05-26.56L234.05-26.56L234.05-26.56Q234.05-29.18 232.45-29.18L232.45-29.18L232.45-29.18Q230.14-29.18 227.94-25.15L227.94-25.15L227.94-25.15Q225.73-21.12 224.77-16L224.77-16ZM263.17 0.38L263.17 0.38Q259.26 0.38 257.44-1.70L257.44-1.70L257.44-1.70Q255.62-3.78 255.62-6.85L255.62-6.85L255.62-6.85Q255.62-8.19 255.94-9.89L255.94-9.89L255.94-9.89Q256.26-11.58 256.61-13.18L256.61-13.18L256.61-13.18Q256.96-14.78 257.09-15.23L257.09-15.23L257.09-15.23Q257.60-17.47 258.05-19.65L258.05-19.65L258.05-19.65Q258.50-21.82 258.50-23.17L258.50-23.17L258.50-23.17Q258.50-26.43 256.19-26.43L256.19-26.43L256.19-26.43Q254.53-26.43 253.25-24.80L253.25-24.80L253.25-24.80Q251.97-23.17 251.20-20.54L251.20-20.54L246.85 0L237.63 0L244.42-32L253.63-32L252.93-28.67L252.93-28.67Q256.13-32.26 260.42-32.26L260.42-32.26L260.42-32.26Q263.68-32.26 265.60-30.46L265.60-30.46L265.60-30.46Q267.52-28.67 267.52-25.02L267.52-25.02L267.52-25.02Q267.52-23.17 267.07-20.90L267.07-20.90L267.07-20.90Q266.62-18.62 265.79-15.36L265.79-15.36L265.79-15.36Q265.28-13.38 264.86-11.49L264.86-11.49L264.86-11.49Q264.45-9.60 264.45-8.51L264.45-8.51L264.45-8.51Q264.45-7.23 265.02-6.53L265.02-6.53L265.02-6.53Q265.60-5.82 267.01-5.82L267.01-5.82L267.01-5.82Q268.93-5.82 270.08-7.20L270.08-7.20L270.08-7.20Q271.23-8.58 272.38-11.46L272.38-11.46L275.07-11.46L275.07-11.46Q272.70-4.42 269.60-2.02L269.60-2.02L269.60-2.02Q266.50 0.38 263.17 0.38L263.17 0.38ZM278.72 0.38L278.72 0.38Q275.65 0.38 273.76-1.54L273.76-1.54L273.76-1.54Q271.87-3.46 271.87-7.30L271.87-7.30L271.87-7.30Q271.87-8.90 272.38-11.46L272.38-11.46L276.22-29.44L274.11-29.44L274.62-32L276.74-32L278.66-40.83L288.13-42.11L285.95-32L289.79-32L289.28-29.44L285.44-29.44L281.34-10.24L281.34-10.24Q281.09-9.28 281.09-8.19L281.09-8.19L281.09-8.19Q281.09-6.91 281.70-6.37L281.70-6.37L281.70-6.37Q282.30-5.82 283.71-5.82L283.71-5.82L283.71-5.82Q285.57-5.82 287.17-7.39L287.17-7.39L287.17-7.39Q288.77-8.96 289.47-11.46L289.47-11.46L292.16-11.46L292.16-11.46Q289.79-4.54 286.08-2.08L286.08-2.08L286.08-2.08Q282.37 0.38 278.72 0.38L278.72 0.38ZM297.15 0.38L297.15 0.38Q293.50 0.38 291.07-2.11L291.07-2.11L291.07-2.11Q288.64-4.61 288.64-9.92L288.64-9.92L288.64-9.92Q288.64-14.66 290.53-19.87L290.53-19.87L290.53-19.87Q292.42-25.09 296.16-28.70L296.16-28.70L296.16-28.70Q299.90-32.32 305.09-32.32L305.09-32.32L305.09-32.32Q307.71-32.32 308.99-31.42L308.99-31.42L308.99-31.42Q310.27-30.53 310.27-29.06L310.27-29.06L310.27-28.61L310.98-32L320.19-32L315.58-10.24L315.58-10.24Q315.33-9.28 315.33-8.19L315.33-8.19L315.33-8.19Q315.33-5.44 317.95-5.44L317.95-5.44L317.95-5.44Q319.74-5.44 321.06-7.10L321.06-7.10L321.06-7.10Q322.37-8.77 323.14-11.46L323.14-11.46L325.82-11.46L325.82-11.46Q323.46-4.54 319.97-2.08L319.97-2.08L319.97-2.08Q316.48 0.38 312.96 0.38L312.96 0.38L312.96 0.38Q310.27 0.38 308.64-1.12L308.64-1.12L308.64-1.12Q307.01-2.62 306.69-5.50L306.69-5.50L306.69-5.50Q304.83-2.88 302.56-1.25L302.56-1.25L302.56-1.25Q300.29 0.38 297.15 0.38L297.15 0.38ZM301.31-5.82L301.31-5.82Q302.91-5.82 304.48-7.33L304.48-7.33L304.48-7.33Q306.05-8.83 306.62-11.46L306.62-11.46L309.70-25.92L309.70-25.92Q309.70-26.75 309.06-27.55L309.06-27.55L309.06-27.55Q308.42-28.35 307.07-28.35L307.07-28.35L307.07-28.35Q304.51-28.35 302.46-25.38L302.46-25.38L302.46-25.38Q300.42-22.40 299.26-18.21L299.26-18.21L299.26-18.21Q298.11-14.02 298.11-10.82L298.11-10.82L298.11-10.82Q298.11-7.62 299.04-6.72L299.04-6.72L299.04-6.72Q299.97-5.82 301.31-5.82L301.31-5.82ZM329.47 0.38L329.47 0.38Q326.40 0.38 324.51-1.54L324.51-1.54L324.51-1.54Q322.62-3.46 322.62-7.30L322.62-7.30L322.62-7.30Q322.62-8.90 323.14-11.46L323.14-11.46L329.98-43.52L339.46-44.80L332.10-10.24L332.10-10.24Q331.84-9.28 331.84-8.19L331.84-8.19L331.84-8.19Q331.84-6.91 332.45-6.37L332.45-6.37L332.45-6.37Q333.06-5.82 334.46-5.82L334.46-5.82L334.46-5.82Q336.32-5.82 337.92-7.39L337.92-7.39L337.92-7.39Q339.52-8.96 340.22-11.46L340.22-11.46L342.91-11.46L342.91-11.46Q340.54-4.54 336.83-2.08L336.83-2.08L336.83-2.08Q333.12 0.38 329.47 0.38L329.47 0.38Z" fill="#ffd5af"></path></g></g><style>text {
  font-size: 64px;
  font-family: Arial Black;
  dominant-baseline: central;
  text-anchor: middle;
}</style></svg>